<svg xmlns="http://www.w3.org/2000/svg" viewBox="0 0 161 161">
    <circle cx="80.197" cy="80.091" r="80" fill="#0D65F2"></circle>
    <path
        d="M89.34 22.791a58.439 58.439 0 00-9.144-.717c-32.042 0-58.016 25.976-58.016 58.017 0 32.041 25.975 58.017 58.016 58.017 32.042 0 58.017-25.976 58.017-58.017 0-23.072-13.469-43-32.974-52.347v24.171c7.763 6.905 12.654 16.97 12.654 28.177 0 17.667-12.153 32.495-28.554 36.58l.001-93.88zm-46.84 57.3c0-18.074 12.72-33.177 29.696-36.846v73.692C55.22 113.268 42.5 98.165 42.5 80.091z"
        clip-rule="evenodd" fill="#fff" fill-rule="evenodd"></path>
</svg>